<svg xmlns="http://www.w3.org/2000/svg" xmlns:xlink="http://www.w3.org/1999/xlink" width="81.737" height="85.734" viewBox="0 0 81.737 85.734"><defs><style>.a{fill:#fc6930;}.b{fill:#ee4424;}.c{fill:#783d3e;}.d{fill:#f5c02c;}.e{fill:#f1ca50;}.f{fill:#f7e6b0;}.g{fill:#fff5f5;}.h{fill:#8f4a4b;}.i{filter:url(#a);}</style><filter id="a" x="3" y="7.274" width="78.736" height="78.461" filterUnits="userSpaceOnUse"><feOffset dx="4" dy="8" input="SourceAlpha"/><feGaussianBlur stdDeviation="3" result="b"/><feFlood flood-color="#fc6930" flood-opacity="0.2"/><feComposite operator="in" in2="b"/><feComposite in="SourceGraphic"/></filter></defs><g transform="translate(-15.5 -69)"><g class="i" transform="matrix(1, 0, 0, 1, 15.5, 69)"><path class="a" d="M94.868,181.461c-16.772,0-30.368-13.25-30.368-29.594V121h60.736v30.867C125.236,168.211,111.64,181.461,94.868,181.461Z" transform="translate(-56.5 -112.73)"/></g><path class="b" d="M98.336,181.27a31.473,31.473,0,0,1-3.468.191c-16.772,0-30.368-13.25-30.368-29.594V121h6.936v30.867C71.436,167.068,83.2,179.593,98.336,181.27Z" transform="translate(-41 -43.726)"/><path class="c" d="M94.5,267.91v-7.319A1.612,1.612,0,0,1,96.133,259h47.675a1.612,1.612,0,0,1,1.633,1.591v7.079a25.3,25.3,0,0,1-25.4,25.061C105.965,292.769,94.5,281.62,94.5,267.91Z" transform="translate(-66.102 -159.77)"/><path class="d" d="M137.36,155.592a3.745,3.745,0,0,0,.759-2.26,3.884,3.884,0,0,0-3.929-3.829h-3.414a1.209,1.209,0,0,0-1.225,1.193v11.455a1.178,1.178,0,0,0,.361.846,1.241,1.241,0,0,0,.864.348h.005s3.14-.014,4.005-.014a4.339,4.339,0,0,0,4.389-4.277A4.241,4.241,0,0,0,137.36,155.592Zm-3.17-3.7a1.443,1.443,0,1,1,0,2.885l-1.237,0H132V151.89Zm.6,9.055c-.509,0-1.8,0-2.786.009v-3.785l.952,0h1.834a1.891,1.891,0,1,1,0,3.78ZM125.813,150.7v7.874a4.547,4.547,0,0,1-2.889,4.214,5.592,5.592,0,0,1-2.486.561h-.008a5.272,5.272,0,0,1-2.824-.792,4.488,4.488,0,0,1-2.409-3.974V150.7a1.225,1.225,0,0,1,2.449,0v7.882a2.179,2.179,0,0,0,1.279,1.963,2.779,2.779,0,0,0,1.509.416,3.113,3.113,0,0,0,1.389-.305c1.382-.678,1.541-1.513,1.541-2.082V150.7a1.225,1.225,0,0,1,2.449,0Zm-13.571,3.233a4.524,4.524,0,0,1-4.607,4.426c-.472,0-1.333,0-2.049.008V162.1a1.24,1.24,0,0,1-1.187,1.243,1.21,1.21,0,0,1-1.262-1.193V150.617a1.129,1.129,0,0,1,1.143-1.114h3.355A4.524,4.524,0,0,1,112.242,153.929Zm-2.449,0a2.129,2.129,0,0,0-2.158-2.039h-2.045c0,.749,0,1.644,0,2.039,0,.468,0,1.33.008,2.047.714,0,1.564-.007,2.033-.007A2.129,2.129,0,0,0,109.793,153.929Zm-11.028,1.858a1.633,1.633,0,1,1-1.633-1.591A1.612,1.612,0,0,1,98.765,155.787Zm47.348,0a1.633,1.633,0,1,1-1.633-1.591A1.612,1.612,0,0,1,146.114,155.787Z" transform="translate(-66.938 -67.694)"/><path class="e" d="M194.4,159.055a4.161,4.161,0,0,1-.293,1.536,1.236,1.236,0,0,1-1.747.6,1.178,1.178,0,0,1-.536-1.462,1.843,1.843,0,0,0,.121-.813,1.958,1.958,0,0,0-1.991-1.75h-1.041a1.209,1.209,0,0,1-1.225-1.231,1.247,1.247,0,0,1,1.275-1.158h.451a1.461,1.461,0,0,0,1.477-1.541,1.5,1.5,0,0,0-1.529-1.344h-.106a1.208,1.208,0,0,1-1.224-1.23,1.246,1.246,0,0,1,1.275-1.157h.019a3.946,3.946,0,0,1,4.012,3.632,3.744,3.744,0,0,1-.754,2.457A4.241,4.241,0,0,1,194.4,159.055ZM162.86,149.5h-.135a1.194,1.194,0,1,0,0,2.387h.135a2.129,2.129,0,0,1,2.158,2.039,2.047,2.047,0,0,1-1.09,1.762,1.2,1.2,0,0,0-.632,1.046,1.225,1.225,0,0,0,1.8,1.059,4.405,4.405,0,0,0,2.368-3.867A4.524,4.524,0,0,0,162.86,149.5Zm16.99,0a1.211,1.211,0,0,0-1.262,1.193v6.163a1.225,1.225,0,0,0,2.449,0v-6.112A1.24,1.24,0,0,0,179.85,149.5Z" transform="translate(-122.163 -67.695)"/><path class="d" d="M161.884,289.945a19.927,19.927,0,0,1,.605,7.372,19.927,19.927,0,0,0,.605,7.372l1.312,4.772a1,1,0,0,1-.729,1.23l-10.614,2.772a1.033,1.033,0,0,1-1.262-.71l-1.312-4.772a20.208,20.208,0,0,0-3.259-6.679,20.212,20.212,0,0,1-3.259-6.679.923.923,0,0,1,.671-1.133l16.078-4.2a.952.952,0,0,1,1.162.654Zm-36.612-5.184a19.927,19.927,0,0,0-.605,7.372,19.928,19.928,0,0,1-.605,7.372l-1.312,4.772a1,1,0,0,0,.729,1.23l10.614,2.772a1.033,1.033,0,0,0,1.262-.71l1.312-4.772a20.208,20.208,0,0,1,3.259-6.679,20.212,20.212,0,0,0,3.259-6.679.923.923,0,0,0-.671-1.133l-16.078-4.2A.952.952,0,0,0,125.272,284.761Z" transform="translate(-89.71 -180.856)"/><path class="e" d="M222.525,310.108l1.151-.3a.949.949,0,0,1,1.16.644,19.93,19.93,0,0,1,.608,7.382,19.918,19.918,0,0,0,.09,4.893,1.1,1.1,0,0,1-.823,1.225h0a1.129,1.129,0,0,1-1.4-.846,19.918,19.918,0,0,1-.289-6.049,19.927,19.927,0,0,0-.494-6.95Zm-17.058-1.286-1.333-.348a20.225,20.225,0,0,1-3.112,6.173,32.938,32.938,0,0,0-3.007,6.6,1.048,1.048,0,0,0,.744,1.366,1.09,1.09,0,0,0,1.3-.685,20.256,20.256,0,0,1,2.821-5.289,20.211,20.211,0,0,0,3.261-6.689A.92.92,0,0,0,205.467,308.821Z" transform="translate(-152.664 -201.371)"/><path class="b" d="M176.833,335.888a21.811,21.811,0,0,0,.665,8.1,3.927,3.927,0,0,1-2.857,4.821l-.82.214a4.052,4.052,0,0,1-4.948-2.784,22.113,22.113,0,0,0-3.579-7.336C164.16,337.371,177.031,334.01,176.833,335.888Zm-33.718-5.137a21.621,21.621,0,0,1-.67,8.05,3.927,3.927,0,0,0,2.857,4.821l.82.214a4.052,4.052,0,0,0,4.948-2.784,21.922,21.922,0,0,1,3.55-7.3C155.769,332.215,142.912,328.857,143.116,330.751Z" transform="translate(-106.104 -219.63)"/><path class="a" d="M193.187,344.942a3.828,3.828,0,0,1-.2,2.6,4.153,4.153,0,0,1-.58.2l-.82.214a4.052,4.052,0,0,1-4.948-2.784,22.1,22.1,0,0,0-3.4-7.087c3.427-1.357,9.42-2.528,9.284-1.242A21.817,21.817,0,0,0,193.187,344.942ZM162.1,331.325a.375.375,0,0,0-.231.383,21.621,21.621,0,0,1-.67,8.05,3.927,3.927,0,0,0,2.857,4.821l.285.075a3.968,3.968,0,0,0,2.421-2.644,21.921,21.921,0,0,1,3.55-7.3C171.066,333.7,165.759,331.9,162.1,331.325Z" transform="translate(-121.793 -220.587)"/><path class="f" d="M180.341,265.349a17.9,17.9,0,0,1,.1,4.558q-.031.29-.053.581L169.248,273.4q-.169-.24-.344-.477a18.251,18.251,0,0,1-2.154-3.763c-.151-.356-.676-1.526-.747-1.777a2.332,2.332,0,0,1-.089-.641,2.418,2.418,0,0,1,2.449-2.387,2.53,2.53,0,0,1,.442.039,2.472,2.472,0,0,1,4.539-.535,2.467,2.467,0,0,1,1.965-.962c.054,0,.107,0,.16,0a2.449,2.449,0,0,1,2.289-1.537,2.419,2.419,0,0,1,2.449,2.387C180.207,263.946,180.288,265,180.341,265.349Zm-21.193-6.582a2.478,2.478,0,0,0-1.571.555,2.457,2.457,0,0,0-2.185-1.307,2.5,2.5,0,0,0-.762.118,2.454,2.454,0,0,0-2.226-1.391,2.479,2.479,0,0,0-1.491.493,2.48,2.48,0,0,0-1.491-.493,2.451,2.451,0,0,0-2.257,1.458,22.342,22.342,0,0,0-.422,2.54,17.914,17.914,0,0,0-.024,3.983c.02.194.04.388.056.581l11.136,2.908c.112-.16.23-.319.347-.477a18.242,18.242,0,0,0,2.172-3.806c.144-.343.9-1.619,1.026-1.978a2.328,2.328,0,0,0,.14-.8A2.419,2.419,0,0,0,159.148,258.767Zm12.3-1.074q.061-.14.116-.28c1.244-3.169-3.58-5.179-5.06-2.108q-.068.141-.131.285a8,8,0,0,0-.22,5.879.815.815,0,0,0,1.1.457A8.3,8.3,0,0,0,171.45,257.693Zm-8.365-5.195c-1.188-1.795-4.023-.161-2.994,1.724.035.064.071.127.109.19a5.281,5.281,0,0,0,2.6,2.19.811.811,0,0,0,1.1-.629,5.071,5.071,0,0,0-.694-3.28C163.167,252.626,163.127,252.561,163.084,252.5Z" transform="translate(-109.713 -153.65)"/><path class="g" d="M196.076,273.791l-8.242,2.152s-.219-.267-.319-.4a22.672,22.672,0,0,1-2.676-4.676c-.187-.442-.84-1.9-.929-2.208a2.894,2.894,0,0,1-.111-.8q0-.1.006-.194.12-.012.244-.012a2.529,2.529,0,0,1,.442.039,2.472,2.472,0,0,1,4.539-.535A2.467,2.467,0,0,1,191,266.2c.054,0,.107,0,.16,0a2.449,2.449,0,0,1,2.289-1.536,2.418,2.418,0,0,1,2.449,2.387c0,.2.081,1.253.134,1.6a17.9,17.9,0,0,1,.1,4.558q-.03.291-.053.581Zm-22.131-2.752a18.238,18.238,0,0,0,2.172-3.806c.144-.343.9-1.619,1.026-1.978a2.329,2.329,0,0,0,.14-.8,2.418,2.418,0,0,0-2.449-2.387,2.478,2.478,0,0,0-1.571.555,2.456,2.456,0,0,0-2.185-1.307,2.5,2.5,0,0,0-.762.118,2.454,2.454,0,0,0-2.226-1.391,2.479,2.479,0,0,0-1.491.493,2.46,2.46,0,0,0-.561-.315c-.17.627-.44,2.61-.509,3.2a23.542,23.542,0,0,0-.032,5.233c.027.254.055.512.075.767l8.024,2.095C173.71,271.356,173.829,271.2,173.945,271.038Zm2.744-15.166a.929.929,0,0,0,.218,1.3.987.987,0,0,0,1.348.1.929.929,0,0,0-.218-1.3A.987.987,0,0,0,176.689,255.873Zm9.205,2.958a1.261,1.261,0,0,0-1.3,1.172,1.237,1.237,0,0,0,.866,1.509,1.261,1.261,0,0,0,1.3-1.172A1.238,1.238,0,0,0,185.894,258.831Z" transform="translate(-125.4 -156.952)"/><path class="c" d="M92.237,73.773a4.837,4.837,0,0,1-4.9,4.773H20.4a4.775,4.775,0,1,1,4.9-4.773H82.441a4.9,4.9,0,0,1,9.8,0Z" transform="translate(0)"/><path class="h" d="M91.866,86.1H47.946a2.387,2.387,0,1,1,0-4.773h43.92a2.387,2.387,0,1,1,0,4.773Zm-55.212-7.7c-.712.694-.51,2.016.452,2.953s2.319,1.134,3.031.441.51-2.016-.452-2.953S37.366,77.7,36.654,78.394Zm66.832,0c-.712.694-.51,2.016.452,2.953s2.319,1.134,3.031.441.51-2.016-.452-2.953S104.2,77.7,103.486,78.394Z" transform="translate(-17.344 -7.55)"/></g></svg>
